<?xml version="1.0" standalone="no"?>
<!DOCTYPE svg PUBLIC "-//W3C//DTD SVG 20010904//EN"
 "http://www.w3.org/TR/2001/REC-SVG-20010904/DTD/svg10.dtd">
<svg version="1.0" xmlns="http://www.w3.org/2000/svg"
 width="300.000000pt" height="300.000000pt" viewBox="0 0 300.000000 300.000000"
 preserveAspectRatio="xMidYMid meet">
<metadata>
Created by potrace 1.10, written by Peter Selinger 2001-2011
</metadata>
<g transform="translate(0.000000,300.000000) scale(0.100000,-0.100000)"
fill="#000000" stroke="none">
<path d="M172 1741 c2 -5 22 -30 46 -55 l42 -46 85 0 c80 0 85 -1 102 -26 15
-24 15 -29 2 -53 -12 -21 -23 -27 -62 -29 l-47 -3 0 -50 0 -49 63 0 c75 0 122
21 155 70 20 30 23 45 20 98 -4 56 -8 66 -39 98 -21 21 -52 39 -75 44 -51 12
-297 13 -292 1z"/>
<path d="M614 1735 c-4 -9 -5 -75 -2 -148 4 -151 22 -205 81 -244 83 -57 238
-44 299 24 39 43 48 87 48 238 l0 146 -62 -3 -63 -3 -2 -130 c-2 -71 -5 -140
-8 -151 -6 -28 -66 -57 -100 -48 -14 3 -34 18 -45 31 -18 23 -20 41 -20 164
l0 139 -60 0 c-45 0 -62 -4 -66 -15z"/>
<path d="M1100 1530 l0 -220 185 0 185 0 0 50 0 49 -122 3 -123 3 -3 168 -2
167 -60 0 -60 0 0 -220z"/>
<path d="M1599 1741 c-47 -15 -66 -30 -83 -65 -20 -43 -20 -79 1 -123 25 -54
65 -73 151 -73 81 0 112 -11 112 -39 0 -27 -18 -31 -146 -31 l-114 0 0 -50 0
-50 135 0 c150 0 187 9 223 55 16 20 22 42 22 77 0 97 -53 138 -178 138 -74 0
-110 16 -99 44 5 14 24 16 127 16 l121 0 -3 53 -3 52 -120 2 c-66 1 -132 -2
-146 -6z"/>
<path d="M2016 1593 c-38 -87 -79 -179 -91 -204 -40 -84 -42 -79 33 -79 l67 0
60 150 c32 82 62 147 66 142 3 -4 14 -27 24 -52 9 -25 19 -51 22 -57 3 -9 -5
-13 -25 -13 -27 0 -34 -6 -52 -46 -11 -26 -20 -48 -20 -50 0 -2 32 -4 71 -4
l70 0 15 -35 c14 -35 14 -35 80 -35 49 0 65 3 61 13 -3 6 -46 104 -96 217
l-90 205 -63 3 -63 2 -69 -157z"/>
<path d="M2420 1743 c0 -5 22 -30 48 -56 l48 -47 81 0 c73 0 84 -2 97 -22 21
-30 20 -44 -4 -68 -13 -13 -33 -20 -60 -20 l-40 0 0 -49 c0 -40 4 -50 19 -54
11 -2 36 -30 57 -61 l37 -56 70 0 69 0 -17 28 c-10 15 -32 44 -48 66 l-31 39
27 19 c39 29 57 69 57 131 0 63 -28 113 -75 137 -34 17 -335 29 -335 13z"/>
<path d="M170 1435 l0 -125 65 0 65 0 0 125 0 125 -65 0 -65 0 0 -125z"/>
<path d="M2420 1435 l0 -125 65 0 65 0 0 125 0 125 -65 0 -65 0 0 -125z"/>
</g>
</svg>
