<?xml version="1.0" encoding="UTF-8"?>
<svg version="1.1" xmlns="http://www.w3.org/2000/svg" width="512" height="512">
<path d="M0 0 C5.77708516 1.7527755 9.97886344 6.35618629 14.29248047 10.41357422 C16.5639726 12.5108226 18.95999352 14.43730012 21.37109375 16.37109375 C25.41093142 19.65933372 29.4018386 22.99850878 33.37109375 26.37109375 C41.45645514 33.23530321 49.60100052 40.00523733 58.09375 46.36328125 C60.4565781 48.36779036 61.74509556 50.08857869 62.2421875 53.17578125 C62.26410156 54.02398437 62.28601563 54.8721875 62.30859375 55.74609375 C62.34855469 56.58914062 62.38851563 57.4321875 62.4296875 58.30078125 C61.62747558 61.99207807 59.65573379 63.37028755 56.87109375 65.87109375 C55.92046388 66.82023903 54.97658369 67.77618566 54.0390625 68.73828125 C53.04559693 69.74090921 52.0521071 70.74351313 51.05859375 71.74609375 C50.57583984 72.23722656 50.09308594 72.72835937 49.59570312 73.234375 C46.16882588 76.68365013 42.58835333 79.89925553 38.9128418 83.08105469 C35.59283761 85.99176504 32.39213349 89.02619343 29.18359375 92.05859375 C27.775118 93.38451667 26.36625897 94.71003256 24.95703125 96.03515625 C24.26577148 96.68516602 23.57451172 97.33517578 22.86230469 98.00488281 C20.02553659 100.66357032 17.16947578 103.30090483 14.30859375 105.93359375 C9.64466165 110.22690142 5.00204212 114.54222788 0.37109375 118.87109375 C-4.80663117 123.71072466 -10.00210885 128.5301523 -15.21484375 133.33203125 C-19.36861782 137.16160832 -23.50144762 141.01318344 -27.62890625 144.87109375 C-32.79718521 149.70185245 -37.98298515 154.51266259 -43.1862793 159.30566406 C-49.8638053 165.46191157 -56.49474462 171.66819851 -63.12890625 177.87109375 C-61.41807729 181.42530069 -59.32948197 184.42849154 -57.00390625 187.62109375 C-42.58955304 208.04825799 -35.45124392 231.67573279 -35.69140625 256.62109375 C-35.6951123 257.31730835 -35.69881836 258.01352295 -35.70263672 258.73083496 C-35.91898002 287.40123974 -45.55548832 313.83382296 -64.12890625 335.87109375 C-63.29552734 336.23847656 -63.29552734 336.23847656 -62.4453125 336.61328125 C-59.67259442 338.11887185 -57.47620833 339.95894148 -55.06640625 341.99609375 C-53.08797321 343.62198686 -51.1087914 345.24696922 -49.12890625 346.87109375 C-48.20078125 347.64195312 -47.27265625 348.4128125 -46.31640625 349.20703125 C-41.22367059 353.21466699 -37.10041248 356.02852445 -30.484375 356.17578125 C-25.17330703 355.48877743 -21.49446597 353.23665347 -17.75390625 349.49609375 C-15.36428861 345.63594218 -13.90641754 342.57684053 -14.50390625 337.99609375 C-14.81328125 336.94421875 -14.81328125 336.94421875 -15.12890625 335.87109375 C-15.97453125 336.53109375 -16.82015625 337.19109375 -17.69140625 337.87109375 C-21.69813614 340.20228205 -23.57188502 340.60347216 -28.12890625 339.87109375 C-31.31244049 337.98455494 -33.47470253 336.53444151 -34.86328125 333.00390625 C-35.90983672 327.62461113 -34.13439411 324.3390681 -31.12890625 319.87109375 C-29.42449456 317.6446278 -27.60865404 315.53553465 -25.75390625 313.43359375 C-22.08455495 309.20080454 -18.57106257 304.94879803 -15.34765625 300.359375 C-13.57423801 298.19375849 -11.74684747 297.02212043 -9.03515625 296.359375 C-3.36553705 295.94519827 -0.33301687 296.99095821 4.05859375 300.62109375 C5.46036682 301.88831267 6.86150844 303.15631275 8.25097656 304.43701172 C10.05716589 306.03579956 11.92788467 307.5193509 13.83203125 309 C14.51112549 309.52819336 15.19021973 310.05638672 15.88989258 310.60058594 C17.23110773 311.6394629 18.57462596 312.6753747 19.9206543 313.70800781 C20.53465088 314.19108398 21.14864746 314.67416016 21.78125 315.171875 C22.32918213 315.59637939 22.87711426 316.02088379 23.44165039 316.45825195 C26.13308403 319.11842727 26.82657936 321.52769705 27.30859375 325.24609375 C26.73595372 329.99082547 25.45301366 331.73691383 21.87109375 334.87109375 C17.54323979 336.46182447 14.61938361 336.17842709 10.37109375 334.43359375 C9.13359375 333.66015625 9.13359375 333.66015625 7.87109375 332.87109375 C7.90589844 333.45375 7.94070313 334.03640625 7.9765625 334.63671875 C8.39889982 347.42750615 4.83388701 356.94136104 -3.44140625 366.55859375 C-12.70867441 374.53275473 -22.05141726 378.57472974 -34.44140625 378.15234375 C-47.72094452 376.76262463 -57.26450799 369.0244333 -66.98828125 360.57421875 C-70.90612258 357.17301583 -74.99333152 354.00216196 -79.12890625 350.87109375 C-79.62777344 351.21140625 -80.12664062 351.55171875 -80.640625 351.90234375 C-83.12379281 353.57859348 -85.6264333 355.22380764 -88.12890625 356.87109375 C-89.04929687 357.49757813 -89.9696875 358.1240625 -90.91796875 358.76953125 C-116.77488863 375.6734091 -149.47958172 381.48430108 -179.84204102 375.73608398 C-183.32990016 374.9455551 -186.72852793 373.97635903 -190.12890625 372.87109375 C-190.87865723 372.6302002 -191.6284082 372.38930664 -192.40087891 372.14111328 C-199.80020572 369.71993627 -206.98301349 366.95423303 -214.12890625 363.87109375 C-214.607229 364.69722168 -215.08555176 365.52334961 -215.57836914 366.37451172 C-217.38359523 369.4896102 -219.19475448 372.60122618 -221.00756836 375.71191406 C-221.7858401 377.0492125 -222.56257902 378.38740439 -223.33764648 379.7265625 C-236.44410667 402.36422353 -236.44410667 402.36422353 -242.12890625 405.87109375 C-248.2804214 406.29533617 -248.2804214 406.29533617 -251.12890625 404.87109375 C-251.36351562 405.53496094 -251.598125 406.19882812 -251.83984375 406.8828125 C-253.48704598 410.70132676 -255.58508438 414.14231428 -257.75390625 417.68359375 C-258.17414063 418.37646484 -258.594375 419.06933594 -259.02734375 419.78320312 C-260.05785295 421.48120123 -261.09292306 423.17642989 -262.12890625 424.87109375 C-261.65324219 425.45117188 -261.17757812 426.03125 -260.6875 426.62890625 C-258.4577781 429.83657636 -257.88552066 433.03592695 -258.12890625 436.87109375 C-259.81033039 440.36328234 -261.10578661 442.26275234 -264.44140625 444.24609375 C-267.12890625 444.87109375 -267.12890625 444.87109375 -270.41015625 444.37890625 C-274.04871285 444.49370269 -274.04871285 444.49370269 -275.79174805 446.42724609 C-277.46425592 448.66784922 -278.89836141 450.96173927 -280.31640625 453.37109375 C-280.84298828 454.16257812 -281.36957031 454.9540625 -281.91210938 455.76953125 C-283.36124516 458.15542282 -284.4463695 460.16147415 -285.12890625 462.87109375 C-284.43761847 465.21001322 -283.52361732 466.81612949 -282.07543945 468.77148438 C-280.58338759 472.08116867 -281.30025968 474.38981381 -282.12890625 477.87109375 C-283.33705525 480.35629891 -284.54704071 482.60531672 -285.98828125 484.94140625 C-286.37453674 485.5855246 -286.76079224 486.22964294 -287.15875244 486.89328003 C-287.97358206 488.24622209 -288.79414137 489.59572831 -289.62011719 490.94189453 C-290.87469811 492.98922655 -292.10844498 495.04803509 -293.33984375 497.109375 C-294.13811705 498.42911556 -294.93755812 499.74815063 -295.73828125 501.06640625 C-296.1030658 501.67485382 -296.46785034 502.28330139 -296.84368896 502.91018677 C-299.52518609 507.25185655 -302.45515785 511.81665776 -307.34765625 513.74609375 C-313.51652711 514.08411407 -317.0297287 511.90787326 -321.56640625 507.93359375 C-323.24370994 506.41482168 -324.90209489 504.8789083 -326.55029297 503.32861328 C-328.8217851 501.2313649 -331.21780602 499.30488738 -333.62890625 497.37109375 C-337.66874392 494.08285378 -341.6596511 490.74367872 -345.62890625 487.37109375 C-353.71426764 480.50688429 -361.85881302 473.73695017 -370.3515625 467.37890625 C-372.7143906 465.37439714 -374.00290806 463.65360881 -374.5 460.56640625 C-374.52191406 459.71820313 -374.54382813 458.87 -374.56640625 457.99609375 C-374.60636719 457.15304687 -374.64632812 456.31 -374.6875 455.44140625 C-373.88679166 451.75702802 -371.9060378 450.36200283 -369.12890625 447.87109375 C-368.26652344 446.99710937 -367.40414062 446.123125 -366.515625 445.22265625 C-365.62488281 444.32289063 -364.73414063 443.423125 -363.81640625 442.49609375 C-362.93339844 441.60148437 -362.05039062 440.706875 -361.140625 439.78515625 C-358.28048757 436.95913189 -355.25714237 434.34228841 -352.21948242 431.70996094 C-348.7101295 428.62314018 -345.33138396 425.40025166 -341.94140625 422.18359375 C-336.82038903 417.34366918 -331.68991168 412.5163743 -326.50390625 407.74609375 C-321.86022845 403.47420063 -317.23820483 399.18006643 -312.62890625 394.87109375 C-307.45120291 390.0314399 -302.25570348 385.21203504 -297.04296875 380.41015625 C-292.88919468 376.58057918 -288.75636488 372.72900406 -284.62890625 368.87109375 C-279.46062729 364.04033505 -274.27482735 359.22952491 -269.0715332 354.43652344 C-262.3940072 348.28027593 -255.76306788 342.07398899 -249.12890625 335.87109375 C-250.83973521 332.31688681 -252.92833053 329.31369596 -255.25390625 326.12109375 C-269.67065136 305.69053985 -276.79996439 282.06900783 -276.56640625 257.12109375 C-276.56336487 256.4262085 -276.56032349 255.73132324 -276.55718994 255.01538086 C-276.42088299 233.86781183 -270.98902659 215.95442987 -262.12890625 196.87109375 C-263.44955078 195.76701172 -263.44955078 195.76701172 -264.796875 194.640625 C-265.97015469 193.65507006 -267.14332602 192.66938609 -268.31640625 191.68359375 C-268.89455078 191.20083984 -269.47269531 190.71808594 -270.06835938 190.22070312 C-280.82574865 181.16504774 -287.88785487 172.28570216 -289.4453125 157.9609375 C-289.85795389 147.85787892 -287.49803224 137.56810152 -280.88671875 129.7109375 C-272.32613263 120.75085736 -263.95947535 114.90571974 -251.29150391 114.578125 C-232.11732027 114.40981968 -221.03316939 124.25972207 -206.96630859 136.12255859 C-206.26844238 136.70730957 -205.57057617 137.29206055 -204.8515625 137.89453125 C-204.23031494 138.41966309 -203.60906738 138.94479492 -202.96899414 139.48583984 C-199.38308243 142.23805488 -199.38308243 142.23805488 -195.04174805 142.6550293 C-194.31125244 142.44144775 -193.58075684 142.22786621 -192.828125 142.0078125 C-192.01537109 141.78029297 -191.20261719 141.55277344 -190.36523438 141.31835938 C-189.52412109 141.06763672 -188.68300781 140.81691406 -187.81640625 140.55859375 C-186.15472192 140.07958451 -184.49197123 139.60425749 -182.828125 139.1328125 C-182.09424561 138.91584717 -181.36036621 138.69888184 -180.60424805 138.4753418 C-154.5029797 132.10384173 -127.04596307 137.64837342 -103.00390625 148.08666992 C-101.40753833 148.75452541 -99.77054547 149.32388068 -98.12890625 149.87109375 C-97.70295166 149.13922852 -97.27699707 148.40736328 -96.83813477 147.65332031 C-88.57841729 133.47617685 -80.25316508 119.34721996 -71.70584106 105.34118652 C-65.94164424 95.89310201 -60.2652433 86.39596244 -54.62890625 76.87109375 C-47.94829719 65.58276534 -41.19558822 54.3423687 -34.35839844 43.14819336 C-30.7491532 37.22802623 -27.18425992 31.28786932 -23.6875 25.30078125 C-23.32372757 24.67961929 -22.95995514 24.05845734 -22.5851593 23.41847229 C-20.84459427 20.44593131 -19.11164211 17.46976453 -17.3918457 14.48510742 C-8.67816345 -0.42552659 -8.67816345 -0.42552659 0 0 Z M-263.94140625 142.80859375 C-267.66471029 148.02121941 -269.01771169 152.43325975 -268.12890625 158.87109375 C-266.06503478 167.12657964 -258.46949005 172.7538291 -252.12890625 177.87109375 C-249.91513148 179.1592903 -249.91513148 179.1592903 -248.12890625 179.87109375 C-247.75121094 179.40960938 -247.37351562 178.948125 -246.984375 178.47265625 C-239.17242658 169.2154059 -230.25154259 161.50240866 -220.12890625 154.87109375 C-221.46052697 151.82919819 -222.80500076 150.02759587 -225.39453125 147.9609375 C-226.03777344 147.44595703 -226.68101562 146.93097656 -227.34375 146.40039062 C-228.01535156 145.87509766 -228.68695313 145.34980469 -229.37890625 144.80859375 C-230.03503906 144.27943359 -230.69117188 143.75027344 -231.3671875 143.20507812 C-237.88928822 138.03796652 -242.98291459 135.25934638 -251.4453125 135.5234375 C-256.82076747 136.21982104 -260.35893082 138.78999088 -263.94140625 142.80859375 Z " fill="#000001" transform="translate(412.12890625,-0.87109375)"/>
<path d="M0 0 C-1.47388175 3.99420568 -3.37052292 7.53171561 -5.52734375 11.19921875 C-6.04513901 12.08173813 -6.04513901 12.08173813 -6.57339478 12.98208618 C-7.31075296 14.23726796 -8.04977069 15.49147609 -8.79031372 16.74478149 C-9.94597726 18.70185594 -11.09538597 20.66250006 -12.24389648 22.6237793 C-15.60415952 28.34773101 -18.98816693 34.04383955 -22.5703125 39.6328125 C-23.08343994 40.43887939 -23.59656738 41.24494629 -24.12524414 42.07543945 C-25.05118208 43.51664369 -25.99205712 44.94841373 -26.95092773 46.36791992 C-30.00560614 51.12759103 -30.62024146 54.34029666 -30 60 C-28.10350449 63.14658666 -28.10350449 63.14658666 -25 65 C-21.0161363 65.65190497 -18.81180661 65.39688323 -15.1875 63.625 C-11.34729187 60.74740404 -8.07835596 57.17703943 -4.7578125 53.73046875 C-1.98342667 50.98359099 0.90440267 48.44316656 3.85449219 45.8894043 C8.32357825 41.95378105 12.59686416 37.80384443 16.90820312 33.69726562 C20.49409069 30.29891771 24.06721178 27.00195077 28 24 C32.23019265 25.49918792 34.04567337 28.53439882 36.3125 32.1875 C36.70276367 32.81333984 37.09302734 33.43917969 37.49511719 34.08398438 C51.9413258 57.74038802 56.75716524 83.86616632 50.49609375 110.99316406 C47.13257276 124.59953342 40.90310193 142.42084616 30 152 C25.76215256 152 25.38728373 151.90313214 22.390625 149.3671875 C21.71773437 148.80773437 21.04484375 148.24828125 20.3515625 147.671875 C19.65804687 147.07890625 18.96453125 146.4859375 18.25 145.875 C16.8814901 144.72503541 15.51169913 143.57659361 14.140625 142.4296875 C13.12452148 141.57842285 13.12452148 141.57842285 12.08789062 140.70996094 C4.04667262 133.74181032 4.04667262 133.74181032 -6.0234375 131.734375 C-8.18820443 131.8983299 -8.18820443 131.8983299 -10.5 133.4375 C-12.37492962 136.64050476 -12.52083533 139.02825385 -12.62890625 142.68359375 C-11.15651937 148.10673299 -4.84413666 151.9520194 -0.625 155.5 C-0.05499268 155.98122314 0.51501465 156.46244629 1.10229492 156.95825195 C4.94173555 160.17537618 8.84429709 163.19731664 13 166 C11.529043 170.57861263 7.85346598 172.21225063 3.875 174.375 C3.16287354 174.7663916 2.45074707 175.1577832 1.71704102 175.56103516 C-21.650959 188.07089116 -47.96879394 191.84454793 -73.76953125 185 C-88.30113395 180.450456 -100.42552206 173.7058362 -112 164 C-112.9590625 163.21753906 -113.918125 162.43507813 -114.90625 161.62890625 C-129.2556499 149.35533246 -139.96287949 131.51692607 -144 113 C-144.27585938 111.7625 -144.55171875 110.525 -144.8359375 109.25 C-147.73208987 95.27049529 -148.48146249 80.94551923 -145 67 C-144.72027344 65.80761719 -144.44054687 64.61523438 -144.15234375 63.38671875 C-142.23084139 55.50536984 -139.67235494 48.23935543 -136 41 C-131.96195299 42.68416107 -128.89136046 45.47889467 -125.625 48.3125 C-124.51320275 49.26713899 -123.40122446 50.22156717 -122.2890625 51.17578125 C-121.47743652 51.87501709 -121.47743652 51.87501709 -120.64941406 52.58837891 C-118.12134197 54.75198353 -115.56130802 56.87589411 -113 59 C-116 61 -116 61 -119.125 62.5 C-122.08870808 63.68898301 -122.08870808 63.68898301 -123 66 C-123.27342893 68.07346793 -123.27342893 68.07346793 -123.3125 70.375 C-123.34988281 71.14585937 -123.38726562 71.91671875 -123.42578125 72.7109375 C-122.82641122 75.93323879 -121.599699 77.05679065 -119 79 C-114.71975029 79.79040605 -110.32959502 79.28999752 -106 79 C-104.7315625 78.91806396 -104.7315625 78.91806396 -103.4375 78.83447266 C-100.64356076 78.64149638 -97.85338145 78.42041645 -95.0625 78.1875 C-94.16281494 78.11772949 -93.26312988 78.04795898 -92.33618164 77.97607422 C-87.29713111 77.50253056 -83.36569285 76.78199047 -79 74 C-75.47071718 66.94143436 -78.1493405 54.67078459 -78.8125 46.9375 C-78.88251221 46.03346436 -78.95252441 45.12942871 -79.0246582 44.19799805 C-79.47001008 39.4545343 -79.92795029 35.84586575 -83 32 C-85.35270593 30.82364703 -86.820752 30.86640641 -89.4375 30.875 C-90.21996094 30.87242187 -91.00242188 30.86984375 -91.80859375 30.8671875 C-94.17895347 30.91617452 -94.17895347 30.91617452 -97 32 C-97.66 35.96 -98.32 39.92 -99 44 C-102.4063387 41.95619678 -105.12443413 40.20609384 -108.1015625 37.71484375 C-108.83890625 37.10189453 -109.57625 36.48894531 -110.3359375 35.85742188 C-111.09132812 35.22384766 -111.84671875 34.59027344 -112.625 33.9375 C-114.13698139 32.67453582 -115.64996168 31.41276628 -117.1640625 30.15234375 C-117.82873535 29.59538818 -118.4934082 29.03843262 -119.17822266 28.46459961 C-121.14418881 26.83958324 -121.14418881 26.83958324 -124 25 C-117.45601124 10.32461927 -97.24457698 -0.17629432 -82.85449219 -5.84521484 C-78.29694415 -7.48555287 -73.68917481 -8.79218225 -69 -10 C-68.11828125 -10.24492187 -67.2365625 -10.48984375 -66.328125 -10.7421875 C-44.92028299 -15.71916988 -18.64627266 -11.71760304 0 0 Z " fill="#5FA3FD" transform="translate(303,168)"/>
<path d="M0 0 C-1.35926665 4.61759819 -3.25081554 8.37257031 -5.7734375 12.46484375 C-6.32096176 13.35944054 -6.32096176 13.35944054 -6.87954712 14.27210999 C-8.03903473 16.16412291 -9.20667661 18.05093313 -10.375 19.9375 C-11.53440802 21.82153804 -12.69208947 23.70662393 -13.84902954 25.59217834 C-14.90215274 27.30664325 -15.9594978 29.01851276 -17.01708984 30.73022461 C-22.66679515 39.68489637 -22.66679515 39.68489637 -23 50 C-21.53228729 52.26454073 -21.53228729 52.26454073 -20 54 C-20.4485377 57.10166889 -21.68931582 59.44290745 -23.28515625 62.109375 C-23.95708008 63.24052734 -23.95708008 63.24052734 -24.64257812 64.39453125 C-25.11115234 65.17183594 -25.57972656 65.94914062 -26.0625 66.75 C-26.53494141 67.54277344 -27.00738281 68.33554687 -27.49414062 69.15234375 C-28.65826573 71.1043111 -29.82699902 73.05335805 -31 75 C-30.52433594 75.58007812 -30.04867187 76.16015625 -29.55859375 76.7578125 C-27.32887185 79.96548261 -26.75661441 83.1648332 -27 87 C-28.68142414 90.49218859 -29.97688036 92.39165859 -33.3125 94.375 C-36 95 -36 95 -39.30859375 94.48046875 C-42.95310725 94.59766643 -42.95310725 94.59766643 -44.55004883 96.66894531 C-46.07291249 99.04020605 -47.43065559 101.44728441 -48.75 103.9375 C-49.67469292 105.61748618 -50.6066586 107.29349589 -51.546875 108.96484375 C-51.94745117 109.7137085 -52.34802734 110.46257324 -52.76074219 111.23413086 C-54 113 -54 113 -57 114 C-58.95748338 113.87371075 -60.91575184 113.74584491 -62.8671875 113.546875 C-67.05022639 114.43557923 -69.21080985 117.78787518 -71.42773438 121.19287109 C-72.93366788 123.7099457 -74.38221126 126.25172938 -75.8125 128.8125 C-76.31458984 129.69615234 -76.81667969 130.57980469 -77.33398438 131.49023438 C-78.56329606 133.65616448 -79.78500517 135.82601685 -81 138 C-85.91269848 134.38081919 -90.68931139 130.66922849 -95.3125 126.6875 C-100.33127854 122.39682679 -105.41074354 118.20114161 -110.5625 114.0703125 C-113.18718374 111.84101381 -115.59608729 109.46401053 -118 107 C-117.30777344 106.36835938 -116.61554688 105.73671875 -115.90234375 105.0859375 C-109.44487648 99.18462646 -103.0298912 93.23993351 -96.64038086 87.26513672 C-92.60709978 83.49526406 -88.56075578 79.74025217 -84.5 76 C-79.81591636 71.68516206 -75.15260381 67.3487603 -70.5 63 C-65.32225349 58.16039204 -60.12679757 53.34094161 -54.9140625 48.5390625 C-50.76028843 44.70948543 -46.62745863 40.85791031 -42.5 37 C-37.32831002 32.16605304 -32.14057901 27.35042078 -26.93164062 22.55664062 C-23.95206095 19.81161581 -20.98559282 17.05343681 -18.03125 14.28125 C-17.36029297 13.6521875 -16.68933594 13.023125 -15.99804688 12.375 C-14.70099444 11.15782469 -13.40533744 9.93916003 -12.11132812 8.71875 C-2.81738281 0 -2.81738281 0 0 0 Z " fill="#CFACE3" transform="translate(181,349)"/>
<path d="M0 0 C4.03805866 1.36266644 6.54368118 3.1409151 9.625 6.0625 C14.90237745 10.9489606 20.40754884 15.48123767 26 20 C28.06484622 21.68465026 30.12604634 23.37369374 32.1875 25.0625 C33.10917969 25.81660156 34.03085937 26.57070313 34.98046875 27.34765625 C35.64691406 27.89292969 36.31335938 28.43820313 37 29 C36.29488281 29.70382813 35.58976562 30.40765625 34.86328125 31.1328125 C32.95790813 33.03751542 31.06030353 34.94953503 29.16796875 36.8671875 C28.17450318 37.86981546 27.18101335 38.87241938 26.1875 39.875 C25.70474609 40.36613281 25.22199219 40.85726562 24.72460938 41.36328125 C21.30785281 44.80236955 17.7376001 48.00635585 14.07299805 51.17871094 C10.5680927 54.25804128 7.19645326 57.47655852 3.8125 60.6875 C-1.82193178 66.01265781 -7.47817133 71.31064491 -13.18408203 76.55908203 C-17.32882512 80.3737927 -21.44837297 84.21480771 -25.5625 88.0625 C-30.02117662 92.23125505 -34.49466255 96.38169825 -39 100.5 C-43.46130365 104.57907683 -47.89493611 108.68610407 -52.3125 112.8125 C-52.93705078 113.39580078 -53.56160156 113.97910156 -54.20507812 114.58007812 C-57.48762061 117.64759224 -60.76665222 120.71880624 -64.04296875 123.79296875 C-65.03719849 124.72435669 -65.03719849 124.72435669 -66.05151367 125.67456055 C-67.30676656 126.85054424 -68.56092246 128.02770051 -69.8137207 129.20629883 C-73.32544686 132.49446682 -76.9080364 135.65607941 -80.6171875 138.72070312 C-82.13315193 139.97226179 -82.13315193 139.97226179 -83 142 C-83.66 141.67 -84.32 141.34 -85 141 C-84.35417969 139.9275 -83.70835937 138.855 -83.04296875 137.75 C-78.19613634 129.69045544 -73.36340062 121.6228821 -68.5703125 113.53125 C-68.18605606 112.88260986 -67.80179962 112.23396973 -67.40589905 111.56567383 C-67.01583176 110.90720459 -66.62576447 110.24873535 -66.22387695 109.5703125 C-59.03582012 97.43635845 -51.80110911 85.33486115 -44.4593811 73.29321289 C-38.73638571 63.90303754 -33.10137289 54.46316868 -27.5 45 C-21.1780246 34.32171495 -14.8115825 23.67214502 -8.375 13.0625 C-8.00479736 12.45124268 -7.63459473 11.83998535 -7.25317383 11.21020508 C-6.21993755 9.50500557 -5.18425446 7.80128937 -4.1484375 6.09765625 C-3.56239746 5.13351807 -2.97635742 4.16937988 -2.37255859 3.17602539 C-1 1 -1 1 0 0 Z " fill="#CEABE2" transform="translate(412,26)"/>
<path d="M0 0 C2.67983956 1.67489973 3.62504169 2.84305627 4.59375 5.83203125 C5.38195569 9.79579638 5.16850204 11.65003423 3.375 15.375 C0.85169554 18.16391545 -0.34677218 19.23537092 -4 20 C-7.50453252 20.06258094 -9.89114649 20.01158565 -12.55859375 17.578125 C-14.77551399 14.73946225 -15.90112461 12.48448942 -16.625 8.9375 C-15.742336 4.78897918 -13.95724621 3.02765684 -11 0 C-7.49895613 -1.75052194 -3.72338307 -0.83477984 0 0 Z " fill="#030304" transform="translate(149,424)"/>
</svg>
